@startuml convert

' config includes
!include ../../config/macros.iuml
!include ../../config/styles.iuml

' class diagram (https://plantuml.com/class-diagram)
$package(communication.convert) {
    interface Serializer<T: class> <<interface>> {
        + serialize(object: T): String {abstract}
    }

    interface Parser<T: class> <<interface>> {
        + parse(data: String): T {abstract}
    }

    interface Converter<T: class> <<interface>>
    Serializer <|-- Converter
    Parser <|-- Converter
}

@enduml
