@startuml status

' config includes
!include ../../config/macros.iuml
!include ../../config/styles.iuml

' class diagram (https://plantuml.com/class-diagram)
$package(engine.status) {
    interface CellStatus <<interface>>

    abstract class VisitableCellStatus <<abstract>> {
        - enemyDistance: int {readOnly}
        --
        # VisitableCellStatus(enemyDistance: int)
        # VisitableCellStatus()
        + hasEnemy(): boolean
        + hasEnemyInSight(): boolean
        + hasNoEnemyInfo(): boolean
        + getEnemyDistance(): int
    }
    CellStatus <|-- VisitableCellStatus

    class WallCellStatus <<leaf>>
    CellStatus <|-- WallCellStatus

    class UnknownCellStatus <<leaf>>
    CellStatus <|-- UnknownCellStatus
}

@enduml
